<?xml version="1.0" ?><svg width="256px" height="256px" viewBox="0 0 256 256" xmlns="http://www.w3.org/2000/svg"><path d="m18 82.85c-2.3 3.07-1.51 73.57 0 76s105.83 59.7 108.54 59.7 111.26-62.11 111.86-64.22 1.81-67.54 0-69-54.22-29.33-57.54-29.33-50.65 26.53-53.37 26.53-49.14-27.11-52.76-27.11-54.88 25.02-56.73 27.43z" fill="#191919"/><path d="m126.59 226.53c-2.48 0-4.11 0-58.58-29.93s-55.41-31.38-56.75-33.53c-1.2-1.92-2.44-3.9-2.64-41.94-.21-38.76 1.29-40.76 3-43.08 1.2-1.59 2.55-3.4 30.57-17s30.64-13.63 32.54-13.63c3.33 0 6.33 1.28 33.23 16 6.7 3.67 15.43 8.45 19.59 10.51 4.35-2.07 13.65-7 20.78-10.73 26.67-14.06 29.37-15.2 32.53-15.2 2.32 0 4.16 0 33 15 4.54 2.35 27.31 14.18 29.67 16.15 3.29 2.74 3.5 6 3.73 17.11.15 7.47.12 16.85.06 23.41-.11 12.58-.42 34.1-1.21 36.87-1 3.33-3.11 4.69-8.31 7.95-3 1.87-7.23 4.44-12.65 7.66-9.9 5.88-23.36 13.71-37.9 22-14.25 8.21-27.88 15.85-38.25 21.64-19.38 10.74-20 10.74-22.41 10.74zm-101.14-72.31c14.41 8.86 85.68 48.05 101.07 55.58 15.71-8 89.25-50.18 104.23-59.78.52-11.66 1-48.65.35-59.82-10.07-5.62-41.48-22-50.19-25.72-4.85 2.19-16.82 8.5-25.12 12.87-24.1 12.7-25.4 13.19-28.3 13.19s-4.19-.48-27.22-13.09c-8.54-4.67-20.92-11.45-25.74-13.64-8.53 3.29-40.18 18.59-49.28 23.84-1.09 11.6-.74 54.56.2 66.57z" fill="#191919"/><path d="m18 82.85c-2.3 3.07-1.51 73.57 0 76s105.83 59.7 108.54 59.7 111.26-62.11 111.86-64.22 1.81-67.54 0-69-54.22-29.33-57.54-29.33-50.65 26.53-53.37 26.53-49.14-27.11-52.76-27.11-54.88 25.02-56.73 27.43z" fill="#e83a2a"/><path d="m69.43 110.77c-.9 3.61-2.07 7.49-10.58 8.39-11 1.16-11 11.87 0 13.17 6.77.8 10 5.39 10.24 7.84 1.53 14.82 13.36 17.48 15.74 2.44.92-5.81 2.22-9.9 8.86-10.85 11.76-1.68 11.92-10.69 2.14-12.83-3-.66-8.77-1.17-10.24-7.79-2.86-12.89-12.49-15.04-16.16-.37z" fill="#fff"/><path d="m189.74 106.26c0 6.08-6 12.51-10.77 11.92-5.5-.69-10.54-5.61-10.54-11.69s4.24-10.1 10.31-10.31c6.64-.23 11 4 11 10.08z" fill="#fff"/><path d="m168.42 148.13c0-6.08 6-12.51 10.77-11.92 5.5.69 10.54 5.61 10.54 11.69s-4.24 10.1-10.31 10.31c-6.64.23-11-4.01-11-10.08z" fill="#fff"/><path d="m200 137.85c-6.08 0-12.51-6-11.92-10.77.69-5.5 5.61-10.54 11.69-10.54s10.1 4.24 10.31 10.31c.25 6.64-3.99 11-10.08 11z" fill="#fff"/><path d="m158.15 116.54c6.08 0 12.51 6 11.92 10.77-.69 5.5-5.61 10.54-11.69 10.54s-10.1-4.24-10.31-10.31c-.23-6.65 4-11 10.08-11z" fill="#fff"/></svg>